<?xml version="1.0" standalone="no"?>
<!DOCTYPE svg PUBLIC "-//W3C//DTD SVG 1.1//EN" "http://www.w3.org/Graphics/SVG/1.1/DTD/svg11.dtd">
<!--Generator: Xara Designer (www.xara.com), SVG filter version: 6.0.0.4-->
<svg stroke-width="0.501" stroke-linejoin="bevel" fill-rule="evenodd" xmlns:xlink="http://www.w3.org/1999/xlink" xmlns="http://www.w3.org/2000/svg" version="1.1" overflow="visible" width="375pt" height="75pt" viewBox="0 0 375 75">
 <defs>
	</defs>
 <g id="Document" fill="none" stroke="black" font-family="Times New Roman" font-size="16" transform="scale(1 -1)">
  <g id="Spread" transform="translate(0 -75)">
   <g id="Layer 1">
    <g id="Group" stroke-linejoin="miter" stroke="none" stroke-width="3.822" stroke-miterlimit="79.8403193612775">
     <path d="M 0,74.999 L 0,0 L 375.001,0 L 375.001,74.999 L 0,74.999 Z" marker-start="none" marker-end="none"/>
     <g id="Group_1" fill="#00a04c" fill-rule="evenodd">
      <g id="Group_2">
       <path d="M 102.993,22.411 C 102.44,22.803 102.002,23.333 101.703,24.069 L 90.053,50.157 L 90.053,22.964 C 90.053,22.389 89.823,21.952 89.363,21.652 C 88.902,21.33 88.349,21.169 87.728,21.169 C 87.106,21.169 86.576,21.33 86.116,21.652 C 85.655,21.974 85.425,22.411 85.425,22.964 L 85.425,52.529 C 85.425,53.496 85.794,54.301 86.553,54.945 C 87.313,55.59 88.188,55.912 89.201,55.912 C 90.03,55.912 90.813,55.659 91.55,55.175 C 92.287,54.692 92.885,53.932 93.346,52.942 L 104.674,27.777 L 116.002,52.942 C 116.439,53.932 117.015,54.692 117.751,55.175 C 118.489,55.659 119.271,55.912 120.1,55.912 C 121.113,55.912 122.012,55.59 122.771,54.945 C 123.531,54.301 123.923,53.496 123.923,52.529 L 123.923,22.964 C 123.923,22.389 123.692,21.952 123.232,21.652 C 122.771,21.33 122.218,21.169 121.62,21.169 C 120.998,21.169 120.446,21.33 119.985,21.652 C 119.525,21.974 119.294,22.411 119.294,22.964 L 119.294,50.157 L 107.667,24.047 C 107.345,23.333 106.908,22.781 106.378,22.389 C 105.825,21.997 105.273,21.814 104.674,21.814 C 104.098,21.836 103.522,22.021 102.993,22.411 Z" marker-start="none" marker-end="none"/>
       <path d="M 137.438,10.992 C 136.861,10.992 136.379,11.177 135.941,11.544 C 135.504,11.913 135.297,12.397 135.297,12.949 C 135.297,13.249 135.365,13.57 135.527,13.893 L 139.994,23.356 L 130.715,42.512 C 130.553,42.812 130.484,43.134 130.484,43.503 C 130.484,44.101 130.715,44.608 131.175,44.999 C 131.635,45.39 132.142,45.598 132.741,45.598 C 133.616,45.598 134.26,45.16 134.698,44.285 L 142.295,28.192 L 149.94,44.378 C 150.4,45.299 151.045,45.759 151.92,45.759 C 152.495,45.759 153.025,45.552 153.462,45.137 C 153.9,44.723 154.131,44.24 154.131,43.687 C 154.131,43.411 154.061,43.111 153.946,42.835 L 139.509,12.397 C 139.003,11.453 138.336,10.992 137.438,10.992 Z" marker-start="none" marker-end="none"/>
       <path d="M 180.954,29.987 L 163.778,29.987 L 160.831,22.389 C 160.416,21.283 159.634,20.731 158.505,20.731 C 157.861,20.731 157.285,20.938 156.778,21.353 C 156.272,21.767 156.018,22.297 156.018,22.919 C 156.018,23.195 156.087,23.494 156.225,23.84 L 168.084,53.264 C 168.659,54.669 169.257,55.613 169.925,56.074 C 170.593,56.534 171.399,56.764 172.389,56.764 C 173.379,56.764 174.185,56.534 174.853,56.074 C 175.52,55.613 176.119,54.669 176.694,53.264 L 188.553,23.84 C 188.691,23.494 188.759,23.172 188.759,22.919 C 188.759,22.297 188.506,21.767 187.976,21.353 C 187.47,20.938 186.871,20.731 186.227,20.731 C 185.121,20.731 184.338,21.283 183.924,22.389 L 180.954,29.987 Z M 172.366,52.067 L 165.205,33.625 L 179.527,33.625 L 172.366,52.067 Z" marker-start="none" marker-end="none"/>
       <path d="M 195.69,12.144 C 195.068,12.488 194.746,12.972 194.746,13.593 C 194.746,14.008 194.884,14.376 195.183,14.675 C 195.483,14.975 195.828,15.136 196.242,15.136 C 196.45,15.136 196.633,15.113 196.818,15.045 C 196.886,15.021 197.094,14.952 197.439,14.814 C 197.785,14.675 198.014,14.584 198.153,14.537 C 198.291,14.492 198.522,14.399 198.89,14.284 C 199.258,14.169 199.534,14.078 199.765,14.031 C 199.995,13.985 200.295,13.916 200.662,13.823 C 201.031,13.732 201.376,13.685 201.676,13.64 C 201.976,13.593 202.343,13.57 202.735,13.525 C 203.126,13.501 203.518,13.478 203.933,13.478 C 206.511,13.478 208.468,14.123 209.78,15.389 C 211.093,16.656 211.761,18.498 211.761,20.892 L 211.761,25.843 C 211.07,24.323 210.057,23.126 208.675,22.228 C 207.294,21.33 205.659,20.892 203.748,20.892 C 201.953,20.892 200.318,21.215 198.866,21.859 C 197.417,22.504 196.219,23.378 195.275,24.484 C 194.331,25.589 193.617,26.902 193.111,28.375 C 192.604,29.849 192.351,31.46 192.351,33.165 C 192.351,35.605 192.788,37.769 193.64,39.726 C 194.492,41.66 195.781,43.226 197.532,44.4 C 199.258,45.575 201.308,46.174 203.657,46.174 C 207.525,46.174 210.288,44.562 211.945,41.36 L 211.945,43.894 C 211.991,44.47 212.221,44.907 212.636,45.229 C 213.05,45.552 213.51,45.713 214.039,45.713 C 214.616,45.713 215.122,45.528 215.537,45.16 C 215.951,44.792 216.158,44.262 216.158,43.594 L 216.158,21.053 C 216.158,17.508 215.099,14.837 212.981,13.041 C 210.77,11.245 207.869,10.348 204.186,10.348 C 200.755,10.348 197.923,10.945 195.69,12.144 Z M 209.642,26.418 C 211.001,28.099 211.691,30.424 211.691,33.441 C 211.691,34.477 211.622,35.444 211.461,36.342 C 211.3,37.24 211.047,38.115 210.702,38.967 C 210.333,39.796 209.895,40.532 209.343,41.131 C 208.813,41.73 208.099,42.212 207.248,42.582 C 206.396,42.95 205.452,43.111 204.369,43.111 C 202.666,43.111 201.239,42.651 200.087,41.753 C 198.913,40.855 198.084,39.68 197.555,38.253 C 197.047,36.825 196.772,35.19 196.772,33.325 C 196.772,30.241 197.486,27.892 198.913,26.28 C 200.34,24.692 202.159,23.886 204.347,23.886 C 206.535,23.909 208.261,24.738 209.642,26.418 Z" marker-start="none" marker-end="none"/>
       <path d="M 224.746,21.629 C 224.263,22.112 224.032,22.665 224.032,23.333 L 224.032,54.163 C 224.032,54.853 224.263,55.429 224.746,55.889 C 225.23,56.35 225.805,56.58 226.496,56.58 L 236.558,56.58 C 240.726,56.58 243.833,55.797 245.814,54.255 C 247.817,52.689 248.807,50.525 248.807,47.693 C 248.807,45.552 248.185,43.756 246.943,42.259 C 245.699,40.763 243.925,39.864 241.624,39.565 L 241.624,39.473 C 244.34,39.174 246.458,38.253 248.001,36.733 C 249.544,35.214 250.303,33.118 250.303,30.47 C 250.303,29.227 250.05,28.03 249.544,26.902 C 249.037,25.774 248.324,24.76 247.357,23.863 C 246.389,22.964 245.124,22.228 243.534,21.698 C 241.946,21.169 240.127,20.892 238.101,20.892 L 226.496,20.892 C 225.805,20.915 225.23,21.145 224.746,21.629 Z M 235.821,41.2 C 238.631,41.2 240.68,41.684 241.969,42.651 C 243.258,43.618 243.903,45.207 243.903,47.394 C 243.903,48.291 243.765,49.075 243.489,49.719 C 243.213,50.363 242.866,50.893 242.429,51.262 C 241.991,51.653 241.439,51.952 240.748,52.159 C 240.057,52.367 239.39,52.529 238.722,52.597 C 238.055,52.667 237.249,52.712 236.327,52.712 L 229.006,52.712 L 229.006,41.2 L 235.821,41.2 Z M 237.065,24.83 C 239.874,24.83 241.922,25.267 243.166,26.141 C 244.433,27.017 245.054,28.674 245.054,31.093 C 245.054,33.486 244.272,35.121 242.705,36.019 C 241.14,36.894 238.654,37.332 235.269,37.332 L 229.006,37.332 L 229.006,24.83 L 237.065,24.83 Z" marker-start="none" marker-end="none"/>
       <path d="M 258.477,22.873 C 256.843,24.484 256.014,26.902 256.014,30.126 L 256.014,43.571 C 256.014,44.262 256.243,44.792 256.681,45.16 C 257.142,45.528 257.672,45.713 258.27,45.713 C 258.891,45.713 259.421,45.528 259.858,45.16 C 260.319,44.792 260.549,44.262 260.549,43.571 L 260.549,30.056 C 260.549,27.915 261.033,26.303 262,25.197 C 262.967,24.092 264.348,23.54 266.144,23.54 C 268.078,23.54 269.713,24.207 271.048,25.567 C 272.384,26.925 273.098,28.789 273.213,31.138 L 273.213,43.571 C 273.213,44.24 273.443,44.769 273.881,45.137 C 274.341,45.528 274.871,45.713 275.469,45.713 C 276.091,45.713 276.621,45.528 277.035,45.16 C 277.473,44.792 277.679,44.262 277.679,43.571 L 277.679,23.034 C 277.679,22.366 277.45,21.836 277.011,21.468 C 276.552,21.1 276.021,20.915 275.424,20.915 C 274.825,20.915 274.272,21.1 273.858,21.444 C 273.42,21.814 273.213,22.297 273.213,22.964 L 273.213,25.197 C 272.591,23.678 271.532,22.527 270.081,21.698 C 268.631,20.892 266.95,20.478 265.04,20.478 C 262.3,20.454 260.112,21.261 258.477,22.873 Z" marker-start="none" marker-end="none"/>
       <path d="M 289.629,21.514 C 288.248,22.228 287.12,23.172 286.245,24.392 C 285.37,25.589 284.726,26.97 284.265,28.513 C 283.804,30.056 283.574,31.714 283.574,33.463 C 283.574,35.237 283.827,36.894 284.333,38.437 C 284.841,39.979 285.555,41.315 286.475,42.489 C 287.396,43.641 288.57,44.562 289.998,45.207 C 291.425,45.874 292.991,46.196 294.718,46.196 C 296.56,46.196 298.195,45.804 299.622,44.999 C 301.05,44.193 302.132,43.041 302.868,41.522 L 302.868,54.485 C 302.868,55.13 303.099,55.636 303.537,56.027 C 303.996,56.396 304.526,56.58 305.125,56.58 C 305.723,56.58 306.253,56.396 306.691,56.027 C 307.151,55.659 307.358,55.153 307.358,54.485 L 307.358,23.079 C 307.358,22.411 307.129,21.882 306.691,21.514 C 306.23,21.145 305.723,20.962 305.125,20.962 C 304.366,20.962 303.813,21.145 303.421,21.514 C 303.029,21.882 302.846,22.389 302.846,23.057 L 302.846,25.29 C 302.039,23.701 300.912,22.481 299.414,21.675 C 297.918,20.869 296.214,20.454 294.28,20.454 C 292.6,20.454 291.034,20.823 289.629,21.514 Z M 302.868,33.441 C 302.868,34.707 302.73,35.904 302.454,37.01 C 302.177,38.115 301.741,39.151 301.165,40.072 C 300.589,40.993 299.806,41.753 298.817,42.282 C 297.826,42.835 296.674,43.111 295.363,43.111 C 294.073,43.111 292.922,42.812 291.955,42.236 C 290.988,41.66 290.228,40.878 289.699,39.911 C 289.169,38.944 288.777,37.907 288.501,36.802 C 288.225,35.697 288.11,34.546 288.11,33.348 C 288.11,32.174 288.225,31.07 288.456,29.987 C 288.685,28.904 289.054,27.869 289.561,26.878 C 290.067,25.888 290.781,25.082 291.748,24.461 C 292.715,23.863 293.843,23.54 295.132,23.517 C 300.289,23.563 302.868,26.855 302.868,33.441 Z" marker-start="none" marker-end="none"/>
       <path d="M 319.354,21.514 C 317.973,22.228 316.844,23.172 315.97,24.392 C 315.095,25.589 314.45,26.97 313.989,28.513 C 313.529,30.056 313.299,31.714 313.299,33.463 C 313.299,35.237 313.552,36.894 314.058,38.437 C 314.565,39.979 315.279,41.315 316.2,42.489 C 317.12,43.641 318.295,44.562 319.723,45.207 C 321.15,45.874 322.715,46.196 324.442,46.196 C 326.284,46.196 327.919,45.804 329.347,44.999 C 330.774,44.193 331.856,43.041 332.593,41.522 L 332.593,54.485 C 332.593,55.13 332.823,55.636 333.261,56.027 C 333.721,56.396 334.251,56.58 334.849,56.58 C 335.448,56.58 335.978,56.396 336.415,56.027 C 336.876,55.659 337.082,55.153 337.082,54.485 L 337.082,23.079 C 337.082,22.411 336.853,21.882 336.415,21.514 C 335.955,21.145 335.448,20.962 334.849,20.962 C 334.09,20.962 333.537,21.145 333.146,21.514 C 332.754,21.882 332.57,22.389 332.57,23.057 L 332.57,25.29 C 331.764,23.701 330.636,22.481 329.139,21.675 C 327.643,20.869 325.94,20.454 324.005,20.454 C 322.301,20.454 320.735,20.823 319.354,21.514 Z M 332.57,33.441 C 332.57,34.707 332.432,35.904 332.156,37.01 C 331.88,38.115 331.442,39.151 330.866,40.072 C 330.291,40.993 329.508,41.753 328.518,42.282 C 327.528,42.835 326.376,43.111 325.064,43.111 C 323.774,43.111 322.624,42.812 321.657,42.236 C 320.69,41.66 319.929,40.878 319.4,39.911 C 318.871,38.944 318.48,37.907 318.203,36.802 C 317.927,35.697 317.811,34.546 317.811,33.348 C 317.811,32.174 317.927,31.07 318.157,29.987 C 318.387,28.904 318.756,27.869 319.262,26.878 C 319.768,25.888 320.482,25.082 321.449,24.461 C 322.416,23.863 323.544,23.54 324.834,23.517 C 329.991,23.563 332.57,26.855 332.57,33.441 Z" marker-start="none" marker-end="none"/>
       <path d="M 349.815,10.992 C 349.24,10.992 348.756,11.177 348.319,11.544 C 347.881,11.913 347.674,12.397 347.674,12.949 C 347.674,13.249 347.743,13.57 347.904,13.893 L 352.371,23.356 L 343.093,42.512 C 342.932,42.812 342.862,43.134 342.862,43.503 C 342.862,44.101 343.093,44.608 343.552,44.999 C 344.013,45.39 344.519,45.598 345.118,45.598 C 345.993,45.598 346.661,45.16 347.076,44.285 L 354.674,28.192 L 362.318,44.378 C 362.778,45.299 363.423,45.759 364.298,45.759 C 364.873,45.759 365.403,45.552 365.84,45.137 C 366.278,44.723 366.508,44.24 366.508,43.687 C 366.508,43.411 366.439,43.111 366.325,42.835 L 351.888,12.397 C 351.381,11.453 350.714,10.992 349.815,10.992 Z" marker-start="none" marker-end="none"/>
      </g>
      <path d="M 77.366,49.005 C 77.275,49.995 76.492,50.778 75.502,50.871 C 74.949,50.916 61.871,52.067 54.25,44.47 C 52.592,42.812 51.349,40.901 50.428,38.921 C 48.908,45.16 46.192,50.363 42.462,54.093 C 37.857,58.699 31.041,61.738 22.752,62.934 C 16.582,63.81 11.771,63.372 11.563,63.349 C 10.596,63.257 9.813,62.475 9.721,61.485 C 9.698,61.277 9.26,56.488 10.135,50.318 C 11.333,42.029 14.372,35.214 18.976,30.608 C 23.581,26.003 30.397,22.964 38.686,21.767 C 41.748,21.33 44.464,21.215 46.445,21.215 C 48.241,21.215 50.889,21.261 52.086,21.261 C 56.323,21.261 65.186,22.021 70.943,27.754 C 78.564,35.375 77.413,48.452 77.366,49.005 Z M 32.17,43.802 C 31.364,44.608 30.051,44.608 29.245,43.802 C 28.44,42.996 28.44,41.684 29.245,40.878 L 44.741,25.382 C 38.777,25.589 28.463,26.948 21.9,33.533 C 14.072,41.36 13.612,54.554 13.75,59.32 C 18.516,59.435 31.686,58.998 39.538,51.147 C 46.099,44.585 47.481,34.292 47.688,28.307 L 32.17,43.802 Z M 68.019,30.678 C 64.381,27.04 58.878,25.865 54.941,25.52 L 64.059,34.638 C 64.865,35.444 64.865,36.756 64.059,37.562 C 63.252,38.368 61.941,38.368 61.135,37.562 L 52.017,28.445 C 52.362,32.381 53.513,37.862 57.174,41.522 C 61.917,46.266 69.792,46.818 73.315,46.795 C 73.315,43.295 72.762,35.421 68.019,30.678 Z" marker-start="none" marker-end="none"/>
     </g>
    </g>
   </g>
  </g>
 </g>
</svg>
