<svg stroke-width=".501" stroke-linejoin="bevel" fill-rule="evenodd" xmlns="http://www.w3.org/2000/svg" overflow="visible" width="100%" height="100%" viewBox="0 0 225 150"><path d="M43.746 105.001H22.499V120H0V29.999h22.499V45h21.246C55.326 18.519 81.762 0 112.498 0c30.735 0 57.171 18.519 68.752 45h21.249V29.999h22.499V120h-22.499v-14.999h-21.25C169.669 131.482 143.233 150 112.498 150c-30.736 0-57.172-18.518-68.752-44.999zM179.998 75c0-37.26-30.24-67.5-67.5-67.5-37.26 0-67.5 30.24-67.5 67.5 0 37.26 30.24 67.5 67.5 67.5 37.26 0 67.5-30.24 67.5-67.5zm-127.5 0c0-33.12 26.88-60 60-60 33.12 0 60 26.88 60 60 0 33.12-26.88 60-60 60-33.12 0-60-26.88-60-60zm37.5 22.5V82.501H74.999V97.5h14.999zm30-.001V82.5h-14.999v14.999h14.999zm30 0V82.5h-14.999v14.999h14.999zm.001-30V52.5H74.998v14.999h75.001z" fill="black" stroke="none" font-family="Times New Roman" font-size="16"/></svg>