<svg stroke-width=".501" stroke-linejoin="bevel" fill-rule="evenodd" xmlns="http://www.w3.org/2000/svg" overflow="visible" width="100%" height="100%" viewBox="0 0 217.5 187.5"><path d="M107.773 166.05v-.08l.004-1.37H93.953c-2.707 8.761-10.895 15.132-20.563 15.132-11.874 0-21.516-9.613-21.516-21.45 0-11.839 9.642-21.451 21.516-21.451 9.668 0 17.86 6.378 20.567 15.136h13.82V144.6h-.004V81.735h-7.788l7.788-9.974v-4.386H34.805L0 0h34.131l68.938 56.596h4.704v-6.291h26.854v6.291h72.383l10.489 1.987v6.805l-10.489 1.987h-72.383v4.271h.319l8.632 10.089h-8.951v70.232h12.389c2.706-8.758 10.898-15.136 20.57-15.136 11.873 0 21.515 9.612 21.515 21.451 0 11.837-9.642 21.45-21.515 21.45-9.672 0-17.86-6.371-20.567-15.132h-12.392v22.9c-14.82 0-26.854-9.613-26.854-21.45zm26.854-21.45l-.067.003c.023 0 .044 0 .067-.003z" fill="#000" stroke="none" font-family="Times New Roman" font-size="16"/></svg>