<?xml version="1.0" encoding="utf-8"?>
<!-- Generator: Adobe Illustrator 23.0.2, SVG Export Plug-In . SVG Version: 6.00 Build 0)  -->
<svg version="1.1" id="Layer_1" xmlns="http://www.w3.org/2000/svg" xmlns:xlink="http://www.w3.org/1999/xlink" x="0px" y="0px"
	 viewBox="0 0 157 25" style="enable-background:new 0 0 157 25;" xml:space="preserve">
<style type="text/css">
	.st0{fill:#00A04C;}
</style>
<g>
	<g>
		<path class="st0" d="M41.57,18.76c-0.24-0.17-0.43-0.4-0.56-0.72L35.95,6.71v11.81c0,0.25-0.1,0.44-0.3,0.57
			c-0.2,0.14-0.44,0.21-0.71,0.21c-0.27,0-0.5-0.07-0.7-0.21c-0.2-0.14-0.3-0.33-0.3-0.57V5.68c0-0.42,0.16-0.77,0.49-1.05
			c0.33-0.28,0.71-0.42,1.15-0.42c0.36,0,0.7,0.11,1.02,0.32c0.32,0.21,0.58,0.54,0.78,0.97l4.92,10.93l4.92-10.93
			c0.19-0.43,0.44-0.76,0.76-0.97c0.32-0.21,0.66-0.32,1.02-0.32c0.44,0,0.83,0.14,1.16,0.42c0.33,0.28,0.5,0.63,0.5,1.05v12.84
			c0,0.25-0.1,0.44-0.3,0.57c-0.2,0.14-0.44,0.21-0.7,0.21c-0.27,0-0.51-0.07-0.71-0.21c-0.2-0.14-0.3-0.33-0.3-0.57V6.71
			L43.6,18.05c-0.14,0.31-0.33,0.55-0.56,0.72c-0.24,0.17-0.48,0.25-0.74,0.25C42.05,19.01,41.8,18.93,41.57,18.76z"/>
		<path class="st0" d="M56.53,23.72c-0.25,0-0.46-0.08-0.65-0.24c-0.19-0.16-0.28-0.37-0.28-0.61c0-0.13,0.03-0.27,0.1-0.41
			l1.94-4.11l-4.03-8.32c-0.07-0.13-0.1-0.27-0.1-0.43c0-0.26,0.1-0.48,0.3-0.65c0.2-0.17,0.42-0.26,0.68-0.26
			c0.38,0,0.66,0.19,0.85,0.57l3.3,6.99l3.32-7.03c0.2-0.4,0.48-0.6,0.86-0.6c0.25,0,0.48,0.09,0.67,0.27
			c0.19,0.18,0.29,0.39,0.29,0.63c0,0.12-0.03,0.25-0.08,0.37l-6.27,13.22C57.21,23.52,56.92,23.72,56.53,23.72z"/>
		<path class="st0" d="M75.43,15.47h-7.46l-1.28,3.3c-0.18,0.48-0.52,0.72-1.01,0.72c-0.28,0-0.53-0.09-0.75-0.27
			c-0.22-0.18-0.33-0.41-0.33-0.68c0-0.12,0.03-0.25,0.09-0.4l5.15-12.78c0.25-0.61,0.51-1.02,0.8-1.22c0.29-0.2,0.64-0.3,1.07-0.3
			c0.43,0,0.78,0.1,1.07,0.3c0.29,0.2,0.55,0.61,0.8,1.22l5.15,12.78c0.06,0.15,0.09,0.29,0.09,0.4c0,0.27-0.11,0.5-0.34,0.68
			c-0.22,0.18-0.48,0.27-0.76,0.27c-0.48,0-0.82-0.24-1-0.72L75.43,15.47z M71.7,5.88l-3.11,8.01h6.22L71.7,5.88z"/>
		<path class="st0" d="M81.83,23.22c-0.27-0.15-0.41-0.36-0.41-0.63c0-0.18,0.06-0.34,0.19-0.47c0.13-0.13,0.28-0.2,0.46-0.2
			c0.09,0,0.17,0.01,0.25,0.04c0.03,0.01,0.12,0.04,0.27,0.1c0.15,0.06,0.25,0.1,0.31,0.12c0.06,0.02,0.16,0.06,0.32,0.11
			c0.16,0.05,0.28,0.09,0.38,0.11c0.1,0.02,0.23,0.05,0.39,0.09c0.16,0.04,0.31,0.06,0.44,0.08c0.13,0.02,0.29,0.03,0.46,0.05
			c0.17,0.01,0.34,0.02,0.52,0.02c1.12,0,1.97-0.28,2.54-0.83c0.57-0.55,0.86-1.35,0.86-2.39v-2.15c-0.3,0.66-0.74,1.18-1.34,1.57
			c-0.6,0.39-1.31,0.58-2.14,0.58c-0.78,0-1.49-0.14-2.12-0.42c-0.63-0.28-1.15-0.66-1.56-1.14c-0.41-0.48-0.72-1.05-0.94-1.69
			c-0.22-0.64-0.33-1.34-0.33-2.08c0-1.06,0.19-2,0.56-2.85c0.37-0.84,0.93-1.52,1.69-2.03c0.75-0.51,1.64-0.77,2.66-0.77
			c1.68,0,2.88,0.7,3.6,2.09v-1.1c0.02-0.25,0.12-0.44,0.3-0.58c0.18-0.14,0.38-0.21,0.61-0.21c0.25,0,0.47,0.08,0.65,0.24
			c0.18,0.16,0.27,0.39,0.27,0.68v9.79c0,1.54-0.46,2.7-1.38,3.48C88.38,23.61,87.12,24,85.52,24C84.03,24,82.8,23.74,81.83,23.22z
			 M87.89,17.02c0.59-0.73,0.89-1.74,0.89-3.05c0-0.45-0.03-0.87-0.1-1.26c-0.07-0.39-0.18-0.77-0.33-1.14
			c-0.16-0.36-0.35-0.68-0.59-0.94c-0.23-0.26-0.54-0.47-0.91-0.63c-0.37-0.16-0.78-0.23-1.25-0.23c-0.74,0-1.36,0.2-1.86,0.59
			c-0.51,0.39-0.87,0.9-1.1,1.52c-0.22,0.62-0.34,1.33-0.34,2.14c0,1.34,0.31,2.36,0.93,3.06c0.62,0.69,1.41,1.04,2.36,1.04
			C86.54,18.11,87.29,17.75,87.89,17.02z"/>
		<path class="st0" d="M94.45,19.1c-0.21-0.21-0.31-0.45-0.31-0.74V4.97c0-0.3,0.1-0.55,0.31-0.75c0.21-0.2,0.46-0.3,0.76-0.3h4.37
			c1.81,0,3.16,0.34,4.02,1.01c0.87,0.68,1.3,1.62,1.3,2.85c0,0.93-0.27,1.71-0.81,2.36c-0.54,0.65-1.31,1.04-2.31,1.17v0.04
			c1.18,0.13,2.1,0.53,2.77,1.19c0.67,0.66,1,1.57,1,2.72c0,0.54-0.11,1.06-0.33,1.55c-0.22,0.49-0.53,0.93-0.95,1.32
			c-0.42,0.39-0.97,0.71-1.66,0.94c-0.69,0.23-1.48,0.35-2.36,0.35h-5.04C94.91,19.41,94.66,19.31,94.45,19.1z M99.26,10.6
			c1.22,0,2.11-0.21,2.67-0.63c0.56-0.42,0.84-1.11,0.84-2.06c0-0.39-0.06-0.73-0.18-1.01c-0.12-0.28-0.27-0.51-0.46-0.67
			c-0.19-0.17-0.43-0.3-0.73-0.39c-0.3-0.09-0.59-0.16-0.88-0.19c-0.29-0.03-0.64-0.05-1.04-0.05H96.3v5H99.26z M99.8,17.71
			c1.22,0,2.11-0.19,2.65-0.57c0.55-0.38,0.82-1.1,0.82-2.15c0-1.04-0.34-1.75-1.02-2.14c-0.68-0.38-1.76-0.57-3.23-0.57H96.3v5.43
			H99.8z"/>
		<path class="st0" d="M109.1,18.56c-0.71-0.7-1.07-1.75-1.07-3.15V9.57c0-0.3,0.1-0.53,0.29-0.69c0.2-0.16,0.43-0.24,0.69-0.24
			c0.27,0,0.5,0.08,0.69,0.24C109.9,9.04,110,9.27,110,9.57v5.87c0,0.93,0.21,1.63,0.63,2.11c0.42,0.48,1.02,0.72,1.8,0.72
			c0.84,0,1.55-0.29,2.13-0.88c0.58-0.59,0.89-1.4,0.94-2.42V9.57c0-0.29,0.1-0.52,0.29-0.68c0.2-0.17,0.43-0.25,0.69-0.25
			c0.27,0,0.5,0.08,0.68,0.24c0.19,0.16,0.28,0.39,0.28,0.69v8.92c0,0.29-0.1,0.52-0.29,0.68c-0.2,0.16-0.43,0.24-0.69,0.24
			s-0.5-0.08-0.68-0.23c-0.19-0.16-0.28-0.37-0.28-0.66v-0.97c-0.27,0.66-0.73,1.16-1.36,1.52c-0.63,0.35-1.36,0.53-2.19,0.53
			C110.76,19.61,109.81,19.26,109.1,18.56z"/>
		<path class="st0" d="M122.63,19.15c-0.6-0.31-1.09-0.72-1.47-1.25c-0.38-0.52-0.66-1.12-0.86-1.79c-0.2-0.67-0.3-1.39-0.3-2.15
			c0-0.77,0.11-1.49,0.33-2.16c0.22-0.67,0.53-1.25,0.93-1.76c0.4-0.5,0.91-0.9,1.53-1.18c0.62-0.29,1.3-0.43,2.05-0.43
			c0.8,0,1.51,0.17,2.13,0.52c0.62,0.35,1.09,0.85,1.41,1.51V4.83c0-0.28,0.1-0.5,0.29-0.67c0.2-0.16,0.43-0.24,0.69-0.24
			c0.26,0,0.49,0.08,0.68,0.24c0.2,0.16,0.29,0.38,0.29,0.67v13.64c0,0.29-0.1,0.52-0.29,0.68c-0.2,0.16-0.42,0.24-0.68,0.24
			c-0.33,0-0.57-0.08-0.74-0.24c-0.17-0.16-0.25-0.38-0.25-0.67v-0.97c-0.35,0.69-0.84,1.22-1.49,1.57
			c-0.65,0.35-1.39,0.53-2.23,0.53C123.92,19.61,123.24,19.45,122.63,19.15z M128.38,13.97c0-0.55-0.06-1.07-0.18-1.55
			c-0.12-0.48-0.31-0.93-0.56-1.33c-0.25-0.4-0.59-0.73-1.02-0.96c-0.43-0.24-0.93-0.36-1.5-0.36c-0.56,0-1.06,0.13-1.48,0.38
			c-0.42,0.25-0.75,0.59-0.98,1.01c-0.23,0.42-0.4,0.87-0.52,1.35s-0.17,0.98-0.17,1.5c0,0.51,0.05,0.99,0.15,1.46
			c0.1,0.47,0.26,0.92,0.48,1.35c0.22,0.43,0.53,0.78,0.95,1.05c0.42,0.26,0.91,0.4,1.47,0.41
			C127.26,18.26,128.38,16.83,128.38,13.97z"/>
		<path class="st0" d="M135.54,19.15c-0.6-0.31-1.09-0.72-1.47-1.25c-0.38-0.52-0.66-1.12-0.86-1.79c-0.2-0.67-0.3-1.39-0.3-2.15
			c0-0.77,0.11-1.49,0.33-2.16c0.22-0.67,0.53-1.25,0.93-1.76c0.4-0.5,0.91-0.9,1.53-1.18c0.62-0.29,1.3-0.43,2.05-0.43
			c0.8,0,1.51,0.17,2.13,0.52c0.62,0.35,1.09,0.85,1.41,1.51V4.83c0-0.28,0.1-0.5,0.29-0.67c0.2-0.16,0.43-0.24,0.69-0.24
			c0.26,0,0.49,0.08,0.68,0.24c0.2,0.16,0.29,0.38,0.29,0.67v13.64c0,0.29-0.1,0.52-0.29,0.68c-0.2,0.16-0.42,0.24-0.68,0.24
			c-0.33,0-0.57-0.08-0.74-0.24c-0.17-0.16-0.25-0.38-0.25-0.67v-0.97c-0.35,0.69-0.84,1.22-1.49,1.57
			c-0.65,0.35-1.39,0.53-2.23,0.53C136.82,19.61,136.14,19.45,135.54,19.15z M141.28,13.97c0-0.55-0.06-1.07-0.18-1.55
			c-0.12-0.48-0.31-0.93-0.56-1.33c-0.25-0.4-0.59-0.73-1.02-0.96c-0.43-0.24-0.93-0.36-1.5-0.36c-0.56,0-1.06,0.13-1.48,0.38
			c-0.42,0.25-0.75,0.59-0.98,1.01c-0.23,0.42-0.4,0.87-0.52,1.35s-0.17,0.98-0.17,1.5c0,0.51,0.05,0.99,0.15,1.46
			c0.1,0.47,0.26,0.92,0.48,1.35c0.22,0.43,0.53,0.78,0.95,1.05c0.42,0.26,0.91,0.4,1.47,0.41
			C140.16,18.26,141.28,16.83,141.28,13.97z"/>
		<path class="st0" d="M148.77,23.72c-0.25,0-0.46-0.08-0.65-0.24c-0.19-0.16-0.28-0.37-0.28-0.61c0-0.13,0.03-0.27,0.1-0.41
			l1.94-4.11l-4.03-8.32c-0.07-0.13-0.1-0.27-0.1-0.43c0-0.26,0.1-0.48,0.3-0.65c0.2-0.17,0.42-0.26,0.68-0.26
			c0.38,0,0.67,0.19,0.85,0.57l3.3,6.99l3.32-7.03c0.2-0.4,0.48-0.6,0.86-0.6c0.25,0,0.48,0.09,0.67,0.27
			c0.19,0.18,0.29,0.39,0.29,0.63c0,0.12-0.03,0.25-0.08,0.37l-6.27,13.22C149.45,23.52,149.16,23.72,148.77,23.72z"/>
	</g>
	<g>
		<g>
			<path class="st0" d="M30.44,7.21c-0.04-0.43-0.38-0.77-0.81-0.81c-0.24-0.02-5.92-0.52-9.23,2.78c-0.72,0.72-1.26,1.55-1.66,2.41
				C18.08,8.88,16.9,6.62,15.28,5c-2-2-4.96-3.32-8.56-3.84C4.04,0.78,1.95,0.97,1.86,0.98C1.44,1.02,1.1,1.36,1.06,1.79
				c-0.01,0.09-0.2,2.17,0.18,4.85c0.52,3.6,1.84,6.56,3.84,8.56c2,2,4.96,3.32,8.56,3.84c1.33,0.19,2.51,0.24,3.37,0.24
				c0.78,0,1.93-0.02,2.45-0.02c1.84,0,5.69-0.33,8.19-2.82C30.96,13.13,30.46,7.45,30.44,7.21z M10.81,9.47
				c-0.35-0.35-0.92-0.35-1.27,0c-0.35,0.35-0.35,0.92,0,1.27l6.73,6.73c-2.59-0.09-7.07-0.68-9.92-3.54
				c-3.4-3.4-3.6-9.13-3.54-11.2c2.07-0.05,7.79,0.14,11.2,3.55c2.85,2.85,3.45,7.32,3.54,9.92L10.81,9.47z M26.38,15.17
				c-1.58,1.58-3.97,2.09-5.68,2.24l3.96-3.96c0.35-0.35,0.35-0.92,0-1.27c-0.35-0.35-0.92-0.35-1.27,0l-3.96,3.96
				c0.15-1.71,0.65-4.09,2.24-5.68c2.06-2.06,5.48-2.3,7.01-2.29C28.68,9.69,28.44,13.11,26.38,15.17z"/>
		</g>
	</g>
</g>
</svg>
