<?xml version="1.0" standalone="no"?>
<!DOCTYPE svg PUBLIC "-//W3C//DTD SVG 1.1//EN" "http://www.w3.org/Graphics/SVG/1.1/DTD/svg11.dtd">
<!--Generator: Xara Designer (www.xara.com), SVG filter version: 6.0.0.4-->
<svg stroke-width="0.501" stroke-linejoin="bevel" fill-rule="evenodd" xmlns:xlink="http://www.w3.org/1999/xlink" xmlns="http://www.w3.org/2000/svg" version="1.1" overflow="visible" width="75pt" height="75pt" viewBox="0 0 75 75">
 <defs>
	</defs>
 <g id="Document" fill="none" stroke="black" font-family="Times New Roman" font-size="16" transform="scale(1 -1)">
  <g id="Spread" transform="translate(0 -75)">
   <g id="Layer 1">
    <path d="M 0.001,74.999 L 0.001,0 L 75,0 L 75,74.999 L 0.001,74.999 Z" stroke="none" stroke-width="3.822" stroke-linejoin="miter" marker-start="none" marker-end="none" stroke-miterlimit="79.8403193612775"/>
    <path d="M 34.072,20.991 C 26.643,22.063 20.534,24.787 16.407,28.914 C 12.281,33.042 9.557,39.15 8.483,46.579 C 7.699,52.109 8.092,56.401 8.112,56.587 C 8.195,57.475 8.897,58.175 9.763,58.258 C 9.95,58.278 14.261,58.671 19.791,57.886 C 27.22,56.814 33.329,54.09 37.456,49.962 C 40.799,46.619 43.233,41.956 44.595,36.365 C 45.421,38.139 46.535,39.852 48.021,41.338 C 54.851,48.147 66.572,47.115 67.068,47.075 C 67.955,46.991 68.657,46.29 68.738,45.402 C 68.78,44.907 69.812,33.187 62.982,26.356 C 57.822,21.218 49.879,20.537 46.081,20.537 C 45.009,20.537 42.635,20.496 41.026,20.496 C 39.25,20.496 36.816,20.599 34.072,20.991 Z M 39.499,24.23 L 25.61,38.119 C 24.889,38.841 24.889,40.017 25.61,40.739 C 26.333,41.461 27.51,41.461 28.232,40.739 L 42.14,26.852 C 41.954,32.216 40.716,41.441 34.835,47.322 C 27.798,54.358 15.995,54.75 11.723,54.647 C 11.6,50.375 12.012,38.55 19.028,31.536 C 24.91,25.634 34.153,24.416 39.499,24.23 Z M 60.361,28.977 C 64.612,33.228 65.108,40.285 65.108,43.422 C 61.95,43.442 54.892,42.947 50.641,38.696 C 47.36,35.415 46.329,30.503 46.02,26.976 L 54.191,35.147 C 54.914,35.869 56.089,35.869 56.812,35.147 C 57.534,34.424 57.534,33.248 56.812,32.526 L 48.64,24.354 C 52.169,24.663 57.101,25.716 60.361,28.977 Z" stroke="none" fill="#00a04c" stroke-width="3.822" stroke-linejoin="miter" fill-rule="evenodd" marker-start="none" marker-end="none" stroke-miterlimit="79.8403193612775"/>
   </g>
  </g>
 </g>
</svg>
