<svg stroke-width=".501" stroke-linejoin="bevel" fill-rule="evenodd" xmlns="http://www.w3.org/2000/svg" overflow="visible" width="100%" height="auto" viewBox="0 0 165 187.5"><path stroke-width="2" d="M.001 187.5v-7.499h7.484v-52.499h7.482v-7.501h7.482V67.5H7.484v-7.499h14.965V39.002L7.484 45.001H0V30h7.484v.001l74.829-30 74.83 30h7.483v15.001h-7.484l-.001-.001-14.964-5.998.001 20.998h7.857v-.002h7.482V75H165v7.499h-7.483v.001h-7.482v-15h-7.857v52.501h7.482v7.501h7.483v52.499h7.482v7.499H.001zm119.728-59.998v-7.501h7.482V67.5h-14.967v7.501h-26.04v15h18.558l-7.484 30h-29.93l-7.483-30h18.857v-15h-26.34V67.5H37.416v52.501h7.482v7.501h74.831zM52.382 60.001v-7.499h59.862v7.499h14.967V33.002L82.313 15.001l-44.897 18v27h14.966z" fill="currentColor" stroke="black" font-family="Times New Roman" font-size="16"/></svg>